<svg xmlns="http://www.w3.org/2000/svg" viewBox="0 0 800 600" width="800" height="600" role="img">
  <defs>
    <linearGradient id="bg-routeur-wifi6" x1="0" y1="0" x2="0" y2="1">
      <stop offset="0" stop-color="#272f5e"/>
      <stop offset="1" stop-color="#171c38"/>
    </linearGradient>
    <radialGradient id="glow-routeur-wifi6" cx="0.5" cy="0.42" r="0.55">
      <stop offset="0" stop-color="#38e1b0" stop-opacity="0.28"/>
      <stop offset="1" stop-color="#38e1b0" stop-opacity="0"/>
    </radialGradient>
    <linearGradient id="scr-routeur-wifi6" x1="0" y1="0" x2="1" y2="1">
      <stop offset="0" stop-color="#5b8cff"/>
      <stop offset="1" stop-color="#38e1b0"/>
    </linearGradient>
  </defs>
  <rect width="800" height="600" rx="28" fill="url(#bg-routeur-wifi6)"/>
  <rect width="800" height="600" rx="28" fill="url(#glow-routeur-wifi6)"/>
  <g stroke-linejoin="round" stroke-linecap="round">

    <ellipse cx="400" cy="480" rx="180" ry="22" fill="#000" opacity="0.22"/>
    <g stroke="#38e1b0" stroke-width="10" fill="none" opacity="0.85">
      <path d="M330 250 a90 90 0 0 1 140 0"/>
      <path d="M300 215 a140 140 0 0 1 200 0"/>
    </g>
    <circle cx="400" cy="262" r="14" fill="#38e1b0"/>
    <rect x="318" y="296" width="20" height="80" rx="10" fill="#9aa3c7"/>
    <rect x="462" y="296" width="20" height="80" rx="10" fill="#9aa3c7"/>
    <rect x="270" y="360" width="260" height="110" rx="22" fill="#1c2244"/>
    <circle cx="312" cy="415" r="9" fill="#38e1b0"/>
    <circle cx="344" cy="415" r="9" fill="#ffc94d"/>
    <circle cx="376" cy="415" r="9" fill="#5b8cff"/>

  </g>
</svg>